<?xml version="1.0" ?><svg id="Layer_1" style="enable-background:new 0 0 128 128;" version="1.1" viewBox="0 0 128 128" xml:space="preserve" xmlns="http://www.w3.org/2000/svg" xmlns:xlink="http://www.w3.org/1999/xlink"><style type="text/css">
	.st0{fill:#FFFFFF;}
	.st1{fill:none;stroke:#444B54;stroke-width:6;stroke-linecap:round;stroke-linejoin:round;stroke-miterlimit:10;}
	.st2{fill:#76ECFF;}
	.st3{fill:#E4E7E7;}
	.st4{fill:#FF697B;}
	.st5{fill:#659EC9;}
	.st6{fill:#444B54;}
	.st7{fill:#A4F4C4;}
	.st8{fill:#06A18C;}
	.st9{fill:#8FE5B5;}
	.st10{opacity:0.5;fill:#06A18C;}
	.st11{opacity:0.5;}
	.st12{fill:#FFDBAB;}
	.st13{fill:#D18669;}
	.st14{fill:#FCF09D;}
	.st15{fill:none;stroke:#FFFFFF;stroke-miterlimit:10;}
	.st16{fill:#EDECEB;}
	.st17{fill:#4FBBC6;}
</style><path class="st4" d="M86.2,104H41.8C32,104,24,96,24,86.2V41.8C24,32,32,24,41.8,24h44.4C96,24,104,32,104,41.8v44.4  C104,96,96,104,86.2,104z"/><path class="st4" d="M86.2,104H41.8C32,104,24,96,24,86.2V41.8C24,32,32,24,41.8,24h44.4C96,24,104,32,104,41.8v44.4  C104,96,96,104,86.2,104z"/><path class="st0" d="M24,41.8v14.7c14.5-11.1,41.2-24.9,79.5-19C101.5,29.7,94.6,24,86.2,24H41.8C32,24,24,32,24,41.8z"/><g><polygon class="st0" points="53.5,49 53.5,79 79.5,64  "/></g><path class="st1" d="M86.2,104H41.8C32,104,24,96,24,86.2V41.8C24,32,32,24,41.8,24h44.4C96,24,104,32,104,41.8v44.4  C104,96,96,104,86.2,104z"/></svg>